<svg xmlns="http://www.w3.org/2000/svg" width="500" height="500" style="width:100%;height:100%;transform:translate3d(0,0,0);content-visibility:visible" viewBox="0 0 500 500"><defs><clipPath id="a"><path d="M0 0h500v500H0z"/></clipPath><clipPath id="d"><path d="M0 0h500v500H0z"/></clipPath><clipPath id="c"><path d="M0 0h500v500H0z"/></clipPath><clipPath id="b"><path d="M0 0h500v500H0z"/></clipPath></defs><g clip-path="url(#a)"><g clip-path="url(#b)" opacity="0" style="display:block"><path fill="#121330" d="M4.122-7.99c-1.3 0-2.53.51-3.45 1.43-.25.25-.47.54-.67.84-.19-.3-.42-.59-.7-.87-1.9-1.87-4.99-1.86-6.88.03-1.89 1.89-1.91 5.23-.03 7.13l7.07 7.2a.773.773 0 0 0 1.08 0L7.582.6c1.9-1.91 1.9-5.25 0-7.16a4.88 4.88 0 0 0-3.46-1.43zm2.39 7.52c0 .01 0 .01 0 0L.002 6.17l-6.53-6.65c-1.3-1.32-1.29-3.71.02-5.02.65-.66 1.51-.98 2.37-.98.87 0 1.74.33 2.42 1 .34.34.59.73.75 1.2.21.54.32.7.32.7.14.23.39.37.65.37s.52-.14.65-.36c0 0 .1-.17.31-.71.18-.47.44-.88.78-1.22 1.27-1.27 3.5-1.27 4.78 0 1.31 1.32 1.31 3.72-.01 5.03z" class="primary design" opacity="1" style="display:block" transform="translate(249.963 260.625) scale(20.83)"/><path class="primary design" style="display:none"/><g class="primary design" style="display:none"><path fill="none"/><path/></g><path fill="none" class="primary design" style="display:none"/></g><g clip-path="url(#c)" opacity="0" style="display:block"><path fill="#121330" d="M4.122-7.99c-1.3 0-2.53.51-3.45 1.43-.25.25-.47.54-.67.84-.19-.3-.42-.59-.7-.87-1.9-1.87-4.99-1.86-6.88.03-1.89 1.89-1.91 5.23-.03 7.13l7.07 7.2a.773.773 0 0 0 1.08 0L7.582.6c1.9-1.91 1.9-5.25 0-7.16a4.88 4.88 0 0 0-3.46-1.43zm2.39 7.52c0 .01 0 .01 0 0L.002 6.17l-6.53-6.65c-1.3-1.32-1.29-3.71.02-5.02.65-.66 1.51-.98 2.37-.98.87 0 1.74.33 2.42 1 .34.34.59.73.75 1.2.21.54.32.7.32.7.14.23.39.37.65.37s.52-.14.65-.36c0 0 .1-.17.31-.71.18-.47.44-.88.78-1.22 1.27-1.27 3.5-1.27 4.78 0 1.31 1.32 1.31 3.72-.01 5.03z" class="primary design" opacity="1" style="display:block" transform="translate(249.963 260.625) scale(20.83)"/><path class="primary design" style="display:none"/><path fill="none" class="primary design" style="display:none"/></g><g clip-path="url(#d)" style="display:block"><path class="primary design" style="display:none"/><path fill="none" class="primary design" style="display:none"/></g><g class="com" style="display:none"><path/><path/><path/><path/><path/><path/><path/><path/><path/><path/><path/><path/></g></g></svg>